<svg width="20" height="22" viewBox="0 0 20 22" fill="none" xmlns="http://www.w3.org/2000/svg">
<path d="M5.99991 10L6.39991 10.4C8.38814 12.3882 11.6117 12.3882 13.5999 10.4L13.9999 10M13.9999 5.08268V5C13.9999 2.79086 12.2091 1 9.99991 1C7.79077 1 5.99991 2.79086 5.99991 5V5.08268M13.9999 5.08268C13.2132 5 12.2107 5 10.812 5H9.18782C7.78914 5 6.78662 5 5.99991 5.08268M13.9999 5.08268C14.602 5.14596 15.0776 5.25766 15.5078 5.45483C16.382 5.85563 17.1222 6.50008 17.6395 7.31092C18.2265 8.23109 18.3963 9.45387 18.7359 11.8995C19.1721 15.0399 19.3902 16.6101 18.9107 17.8297C18.4897 18.9003 17.7124 19.793 16.7099 20.3573C15.5679 21 13.9826 21 10.812 21H9.18782C6.01722 21 4.43192 21 3.28995 20.3573C2.28741 19.793 1.51012 18.9003 1.08915 17.8297C0.609616 16.6101 0.827703 15.0399 1.26388 11.8995C1.60354 9.45387 1.77337 8.23109 2.36037 7.31092C2.87763 6.50008 3.61778 5.85563 4.49207 5.45483C4.92219 5.25766 5.39786 5.14596 5.99991 5.08268" stroke="#2A76C3" stroke-width="1.5" stroke-linecap="round"/>
</svg>
