<svg width="72" height="72" viewBox="0 0 72 72" fill="none" xmlns="http://www.w3.org/2000/svg">
<circle cx="36" cy="36" r="36" fill="#589BEB" fill-opacity="0.1"/>
<path d="M33.8478 32.7654L33.1548 32.4784L33.8478 32.7654ZM33.8478 29.2346L33.1548 29.5216L33.8478 29.2346ZM38 30.25C37.5858 30.25 37.25 30.5858 37.25 31C37.25 31.4142 37.5858 31.75 38 31.75V30.25ZM44 31.75C44.4142 31.75 44.75 31.4142 44.75 31C44.75 30.5858 44.4142 30.25 44 30.25V31.75ZM40.25 34C40.25 34.4142 40.5858 34.75 41 34.75C41.4142 34.75 41.75 34.4142 41.75 34H40.25ZM41.75 28C41.75 27.5858 41.4142 27.25 41 27.25C40.5858 27.25 40.25 27.5858 40.25 28H41.75ZM33.8478 42.7654L33.1548 42.4784L33.8478 42.7654ZM33.8478 39.2346L33.1548 39.5216L33.8478 39.2346ZM43.8478 42.7654L43.1549 42.4784L43.8478 42.7654ZM43.8478 39.2346L43.1549 39.5216L43.8478 39.2346ZM31 33.25C30.5238 33.25 30.2042 33.2496 29.9567 33.2327C29.716 33.2163 29.5988 33.1868 29.5216 33.1548L28.9476 34.5407C29.238 34.661 29.5375 34.7076 29.8546 34.7292C30.165 34.7504 30.5443 34.75 31 34.75V33.25ZM27.25 31C27.25 31.4557 27.2496 31.835 27.2708 32.1454C27.2924 32.4625 27.339 32.762 27.4593 33.0524L28.8452 32.4784C28.8132 32.4012 28.7837 32.284 28.7673 32.0433C28.7504 31.7958 28.75 31.4762 28.75 31H27.25ZM29.5216 33.1548C29.2154 33.028 28.972 32.7846 28.8452 32.4784L27.4593 33.0524C27.7384 33.7262 28.2738 34.2616 28.9476 34.5407L29.5216 33.1548ZM33.25 31C33.25 31.4762 33.2496 31.7958 33.2327 32.0433C33.2163 32.284 33.1868 32.4012 33.1548 32.4784L34.5407 33.0524C34.661 32.762 34.7076 32.4625 34.7292 32.1454C34.7504 31.835 34.75 31.4557 34.75 31H33.25ZM31 34.75C31.4557 34.75 31.835 34.7504 32.1454 34.7292C32.4625 34.7076 32.762 34.661 33.0524 34.5407L32.4784 33.1548C32.4012 33.1868 32.284 33.2163 32.0433 33.2327C31.7958 33.2496 31.4762 33.25 31 33.25V34.75ZM33.1548 32.4784C33.028 32.7846 32.7846 33.028 32.4784 33.1548L33.0524 34.5407C33.7262 34.2616 34.2616 33.7262 34.5407 33.0524L33.1548 32.4784ZM31 28.75C31.4762 28.75 31.7958 28.7504 32.0433 28.7673C32.284 28.7837 32.4012 28.8132 32.4784 28.8452L33.0524 27.4593C32.762 27.339 32.4625 27.2924 32.1454 27.2708C31.835 27.2496 31.4557 27.25 31 27.25V28.75ZM34.75 31C34.75 30.5443 34.7504 30.165 34.7292 29.8546C34.7076 29.5375 34.661 29.238 34.5407 28.9476L33.1548 29.5216C33.1868 29.5988 33.2163 29.716 33.2327 29.9567C33.2496 30.2042 33.25 30.5238 33.25 31H34.75ZM32.4784 28.8452C32.7846 28.972 33.028 29.2154 33.1548 29.5216L34.5407 28.9476C34.2616 28.2738 33.7262 27.7384 33.0524 27.4593L32.4784 28.8452ZM31 27.25C30.5443 27.25 30.165 27.2496 29.8546 27.2708C29.5375 27.2924 29.238 27.339 28.9476 27.4593L29.5216 28.8452C29.5988 28.8132 29.716 28.7837 29.9567 28.7673C30.2042 28.7504 30.5238 28.75 31 28.75V27.25ZM28.75 31C28.75 30.5238 28.7504 30.2042 28.7673 29.9567C28.7837 29.716 28.8132 29.5988 28.8452 29.5216L27.4593 28.9476C27.339 29.238 27.2924 29.5375 27.2708 29.8546C27.2496 30.165 27.25 30.5443 27.25 31H28.75ZM28.9476 27.4593C28.2738 27.7384 27.7384 28.2738 27.4593 28.9476L28.8452 29.5216C28.972 29.2154 29.2154 28.972 29.5216 28.8452L28.9476 27.4593ZM38 31.75H44V30.25H38V31.75ZM41.75 34V28H40.25V34H41.75ZM31 43.25C30.5238 43.25 30.2042 43.2496 29.9567 43.2327C29.716 43.2163 29.5988 43.1868 29.5216 43.1549L28.9476 44.5407C29.238 44.661 29.5375 44.7076 29.8546 44.7292C30.165 44.7504 30.5443 44.75 31 44.75V43.25ZM27.25 41C27.25 41.4557 27.2496 41.835 27.2708 42.1454C27.2924 42.4625 27.339 42.762 27.4593 43.0524L28.8452 42.4784C28.8132 42.4012 28.7837 42.284 28.7673 42.0433C28.7504 41.7958 28.75 41.4762 28.75 41H27.25ZM29.5216 43.1549C29.2154 43.028 28.972 42.7846 28.8452 42.4784L27.4593 43.0524C27.7384 43.7262 28.2738 44.2616 28.9476 44.5407L29.5216 43.1549ZM33.25 41C33.25 41.4762 33.2496 41.7958 33.2327 42.0433C33.2163 42.284 33.1868 42.4012 33.1548 42.4784L34.5407 43.0524C34.661 42.762 34.7076 42.4625 34.7292 42.1454C34.7504 41.835 34.75 41.4557 34.75 41H33.25ZM31 44.75C31.4557 44.75 31.835 44.7504 32.1454 44.7292C32.4625 44.7076 32.762 44.661 33.0524 44.5407L32.4784 43.1549C32.4012 43.1868 32.284 43.2163 32.0433 43.2327C31.7958 43.2496 31.4762 43.25 31 43.25V44.75ZM33.1548 42.4784C33.028 42.7846 32.7846 43.028 32.4784 43.1549L33.0524 44.5407C33.7262 44.2616 34.2616 43.7262 34.5407 43.0524L33.1548 42.4784ZM31 38.75C31.4762 38.75 31.7958 38.7504 32.0433 38.7673C32.284 38.7837 32.4012 38.8132 32.4784 38.8451L33.0524 37.4593C32.762 37.339 32.4625 37.2924 32.1454 37.2708C31.835 37.2496 31.4557 37.25 31 37.25V38.75ZM34.75 41C34.75 40.5443 34.7504 40.165 34.7292 39.8546C34.7076 39.5375 34.661 39.238 34.5407 38.9476L33.1548 39.5216C33.1868 39.5988 33.2163 39.716 33.2327 39.9567C33.2496 40.2042 33.25 40.5238 33.25 41H34.75ZM32.4784 38.8451C32.7846 38.972 33.028 39.2154 33.1548 39.5216L34.5407 38.9476C34.2616 38.2738 33.7262 37.7384 33.0524 37.4593L32.4784 38.8451ZM31 37.25C30.5443 37.25 30.165 37.2496 29.8546 37.2708C29.5375 37.2924 29.238 37.339 28.9476 37.4593L29.5216 38.8451C29.5988 38.8132 29.716 38.7837 29.9567 38.7673C30.2042 38.7504 30.5238 38.75 31 38.75V37.25ZM28.75 41C28.75 40.5238 28.7504 40.2042 28.7673 39.9567C28.7837 39.716 28.8132 39.5988 28.8452 39.5216L27.4593 38.9476C27.339 39.238 27.2924 39.5375 27.2708 39.8546C27.2496 40.165 27.25 40.5443 27.25 41H28.75ZM28.9476 37.4593C28.2738 37.7384 27.7384 38.2738 27.4593 38.9476L28.8452 39.5216C28.972 39.2154 29.2154 38.972 29.5216 38.8451L28.9476 37.4593ZM41 43.25C40.5238 43.25 40.2042 43.2496 39.9567 43.2327C39.716 43.2163 39.5988 43.1868 39.5216 43.1549L38.9476 44.5407C39.238 44.661 39.5375 44.7076 39.8546 44.7292C40.165 44.7504 40.5443 44.75 41 44.75V43.25ZM37.25 41C37.25 41.4557 37.2496 41.835 37.2708 42.1454C37.2924 42.4625 37.339 42.762 37.4593 43.0524L38.8451 42.4784C38.8132 42.4012 38.7837 42.284 38.7673 42.0433C38.7504 41.7958 38.75 41.4762 38.75 41H37.25ZM39.5216 43.1549C39.2154 43.028 38.972 42.7846 38.8451 42.4784L37.4593 43.0524C37.7384 43.7262 38.2738 44.2616 38.9476 44.5407L39.5216 43.1549ZM43.25 41C43.25 41.4762 43.2496 41.7958 43.2327 42.0433C43.2163 42.284 43.1868 42.4012 43.1549 42.4784L44.5407 43.0524C44.661 42.762 44.7076 42.4625 44.7292 42.1454C44.7504 41.835 44.75 41.4557 44.75 41H43.25ZM41 44.75C41.4557 44.75 41.835 44.7504 42.1454 44.7292C42.4625 44.7076 42.762 44.661 43.0524 44.5407L42.4784 43.1549C42.4012 43.1868 42.284 43.2163 42.0433 43.2327C41.7958 43.2496 41.4762 43.25 41 43.25V44.75ZM43.1549 42.4784C43.028 42.7846 42.7846 43.028 42.4784 43.1549L43.0524 44.5407C43.7262 44.2616 44.2616 43.7262 44.5407 43.0524L43.1549 42.4784ZM41 38.75C41.4762 38.75 41.7958 38.7504 42.0433 38.7673C42.284 38.7837 42.4012 38.8132 42.4784 38.8451L43.0524 37.4593C42.762 37.339 42.4625 37.2924 42.1454 37.2708C41.835 37.2496 41.4557 37.25 41 37.25V38.75ZM44.75 41C44.75 40.5443 44.7504 40.165 44.7292 39.8546C44.7076 39.5375 44.661 39.238 44.5407 38.9476L43.1549 39.5216C43.1868 39.5988 43.2163 39.716 43.2327 39.9567C43.2496 40.2042 43.25 40.5238 43.25 41H44.75ZM42.4784 38.8451C42.7846 38.972 43.028 39.2154 43.1549 39.5216L44.5407 38.9476C44.2616 38.2738 43.7262 37.7384 43.0524 37.4593L42.4784 38.8451ZM41 37.25C40.5443 37.25 40.165 37.2496 39.8546 37.2708C39.5375 37.2924 39.238 37.339 38.9476 37.4593L39.5216 38.8451C39.5988 38.8132 39.716 38.7837 39.9567 38.7673C40.2042 38.7504 40.5238 38.75 41 38.75V37.25ZM38.75 41C38.75 40.5238 38.7504 40.2042 38.7673 39.9567C38.7837 39.716 38.8132 39.5988 38.8451 39.5216L37.4593 38.9476C37.339 39.238 37.2924 39.5375 37.2708 39.8546C37.2496 40.165 37.25 40.5443 37.25 41H38.75ZM38.9476 37.4593C38.2738 37.7384 37.7384 38.2738 37.4593 38.9476L38.8451 39.5216C38.972 39.2154 39.2154 38.972 39.5216 38.8451L38.9476 37.4593Z" fill="#2A76C3"/>
</svg>
