<svg width="72" height="72" viewBox="0 0 72 72" fill="none" xmlns="http://www.w3.org/2000/svg">
<circle cx="36" cy="36" r="36" fill="#589BEB" fill-opacity="0.1"/>
<path d="M38.25 31.75C38.25 32.9926 37.2426 34 36 34V35.5C38.0711 35.5 39.75 33.8211 39.75 31.75H38.25ZM36 34C34.7574 34 33.75 32.9926 33.75 31.75H32.25C32.25 33.8211 33.9289 35.5 36 35.5V34ZM33.75 31.75C33.75 30.5074 34.7574 29.5 36 29.5V28C33.9289 28 32.25 29.6789 32.25 31.75H33.75ZM36 29.5C37.2426 29.5 38.25 30.5074 38.25 31.75H39.75C39.75 29.6789 38.0711 28 36 28V29.5ZM33 38.5H39V37H33V38.5ZM39 43H33V44.5H39V43ZM33 43C31.7574 43 30.75 41.9926 30.75 40.75H29.25C29.25 42.8211 30.9289 44.5 33 44.5V43ZM41.25 40.75C41.25 41.9926 40.2426 43 39 43V44.5C41.0711 44.5 42.75 42.8211 42.75 40.75H41.25ZM39 38.5C40.2426 38.5 41.25 39.5074 41.25 40.75H42.75C42.75 38.6789 41.0711 37 39 37V38.5ZM33 37C30.9289 37 29.25 38.6789 29.25 40.75H30.75C30.75 39.5074 31.7574 38.5 33 38.5V37Z" fill="#2A76C3"/>
<path d="M31.7521 34.3887C31.5944 34.1353 31.2985 34 31 34C29.7574 34 28.75 32.9926 28.75 31.75C28.75 30.5074 29.7574 29.5 31 29.5C31.2985 29.5 31.5944 29.3647 31.7521 29.1113C31.7591 29.1001 31.7661 29.089 31.7732 29.0778C32.0358 28.6633 31.9027 28.0764 31.415 28.0227C31.2787 28.0077 31.1403 28 31 28C28.9289 28 27.25 29.6789 27.25 31.75C27.25 33.8211 28.9289 35.5 31 35.5C31.1403 35.5 31.2787 35.4923 31.415 35.4773C31.9027 35.4236 32.0358 34.8367 31.7732 34.4222C31.7661 34.411 31.7591 34.3999 31.7521 34.3887Z" fill="#2A76C3"/>
<path d="M28.7083 42.3169C28.5948 42.1275 28.3944 42 28.1736 42H28C26.7574 42 25.75 40.9926 25.75 39.75C25.75 38.5074 26.7574 37.5 28 37.5H28.1736C28.3944 37.5 28.5948 37.3725 28.7083 37.1831C28.9854 36.7208 28.6847 36 28.1457 36H28C25.9289 36 24.25 37.6789 24.25 39.75C24.25 41.8211 25.9289 43.5 28 43.5H28.1457C28.6847 43.5 28.9854 42.7792 28.7083 42.3169Z" fill="#2A76C3"/>
<path d="M40.2268 34.4222C39.9642 34.8367 40.0973 35.4236 40.585 35.4773C40.7213 35.4923 40.8597 35.5 41 35.5C43.0711 35.5 44.75 33.8211 44.75 31.75C44.75 29.6789 43.0711 28 41 28C40.8597 28 40.7213 28.0077 40.585 28.0227C40.0973 28.0764 39.9642 28.6633 40.2268 29.0778C40.2339 29.089 40.2409 29.1001 40.2479 29.1113C40.4056 29.3647 40.7015 29.5 41 29.5C42.2426 29.5 43.25 30.5074 43.25 31.75C43.25 32.9926 42.2426 34 41 34C40.7015 34 40.4056 34.1353 40.2479 34.3887C40.2409 34.3999 40.2339 34.411 40.2268 34.4222Z" fill="#2A76C3"/>
<path d="M43.2917 42.3169C43.0146 42.7792 43.3153 43.5 43.8543 43.5H44C46.0711 43.5 47.75 41.8211 47.75 39.75C47.75 37.6789 46.0711 36 44 36H43.8543C43.3153 36 43.0146 36.7208 43.2917 37.1831C43.4052 37.3725 43.6056 37.5 43.8264 37.5H44C45.2426 37.5 46.25 38.5074 46.25 39.75C46.25 40.9926 45.2426 42 44 42H43.8264C43.6056 42 43.4052 42.1275 43.2917 42.3169Z" fill="#2A76C3"/>
</svg>
