<svg width="72" height="72" viewBox="0 0 72 72" fill="none" xmlns="http://www.w3.org/2000/svg">
<circle cx="36" cy="36" r="36" fill="#589BEB" fill-opacity="0.1"/>
<path d="M44 41V31C44 28.832 40.337 27 36 27C31.663 27 28 28.832 28 31V41C28 43.168 31.663 45 36 45C40.337 45 44 43.168 44 41ZM36 29C39.691 29 41.931 30.507 42 30.994C41.931 31.493 39.691 33 36 33C32.309 33 30.069 31.493 30 31.006C30.069 30.507 32.309 29 36 29ZM30 33.607C31.479 34.454 33.637 35 36 35C38.363 35 40.521 34.454 42 33.607V35.994C41.931 36.493 39.691 38 36 38C32.309 38 30.069 36.493 30 36V33.607ZM30 41V38.607C31.479 39.454 33.637 40 36 40C38.363 40 40.521 39.454 42 38.607V40.994C41.931 41.493 39.691 43 36 43C32.309 43 30.069 41.493 30 41Z" fill="#2A76C3"/>
</svg>
