<svg width="56" height="56" viewBox="0 0 56 56" fill="none" xmlns="http://www.w3.org/2000/svg">
<path d="M23.3494 4.90863C20.0791 3.84997 16.524 5.32254 14.9601 8.38363L13.08 12.0637C12.8566 12.5009 12.5009 12.8566 12.0637 13.08L8.38363 14.9601C5.32254 16.524 3.84997 20.0791 4.90863 23.3494L6.18136 27.2811C6.33259 27.7482 6.33259 28.2513 6.18136 28.7184L4.90863 32.6501C3.84997 35.9205 5.32254 39.4755 8.38363 41.0396L12.0637 42.9195C12.5009 43.1431 12.8566 43.4987 13.08 43.9359L14.9601 47.616C16.524 50.6771 20.0791 52.1497 23.3494 51.0911L27.2811 49.8182C27.7482 49.667 28.2513 49.667 28.7184 49.8182L32.6501 51.0911C35.9205 52.1497 39.4755 50.6771 41.0396 47.616L42.9195 43.9359C43.1431 43.4987 43.4987 43.1431 43.9359 42.9195L47.616 41.0396C50.6771 39.4755 52.1497 35.9205 51.0911 32.6501L49.8182 28.7184C49.667 28.2513 49.667 27.7482 49.8182 27.2811L51.0911 23.3494C52.1497 20.0791 50.6771 16.524 47.616 14.9601L43.9359 13.08C43.4987 12.8566 43.1431 12.5009 42.9195 12.0637L41.0396 8.38363C39.4755 5.32254 35.9205 3.84997 32.6501 4.90863L28.7184 6.18136C28.2513 6.33256 27.7482 6.33259 27.2811 6.18136L23.3494 4.90863ZM15.7726 27.4335L19.0724 24.1334L25.672 30.7333L38.8714 17.534L42.1712 20.8338L25.672 37.3328L15.7726 27.4335Z" fill="#2A76C3"/>
</svg>
