<svg width="72" height="72" viewBox="0 0 72 72" fill="none" xmlns="http://www.w3.org/2000/svg">
<circle cx="36" cy="36" r="36" fill="#589BEB" fill-opacity="0.1"/>
<path d="M35.25 43C35.25 43.4142 35.5858 43.75 36 43.75C36.4142 43.75 36.75 43.4142 36.75 43H35.25ZM36.75 29C36.75 28.5858 36.4142 28.25 36 28.25C35.5858 28.25 35.25 28.5858 35.25 29H36.75ZM38.4377 32.4518C38.6448 32.8105 39.1035 32.9334 39.4623 32.7263C39.821 32.5192 39.9439 32.0605 39.7368 31.7017L38.4377 32.4518ZM38.7117 31.4263L38.0622 31.8013V31.8013L38.7117 31.4263ZM35.1301 35.68L35.389 34.9761L35.389 34.9761L35.1301 35.68ZM36.8702 36.32L37.1291 35.6161L37.129 35.6161L36.8702 36.32ZM33.2885 40.5738L32.639 40.9488H32.639L33.2885 40.5738ZM33.5625 39.5483C33.3554 39.1895 32.8967 39.0666 32.538 39.2737C32.1792 39.4808 32.0563 39.9395 32.2634 40.2983L33.5625 39.5483ZM37.3279 41.6561L36.9529 41.0066L37.3279 41.6561ZM34.6723 30.3439L35.0473 30.9934L34.6723 30.3439ZM45.25 36C45.25 41.1086 41.1086 45.25 36 45.25V46.75C41.9371 46.75 46.75 41.9371 46.75 36H45.25ZM36 45.25C30.8914 45.25 26.75 41.1086 26.75 36H25.25C25.25 41.9371 30.0629 46.75 36 46.75V45.25ZM26.75 36C26.75 30.8914 30.8914 26.75 36 26.75V25.25C30.0629 25.25 25.25 30.0629 25.25 36H26.75ZM36 26.75C41.1086 26.75 45.25 30.8914 45.25 36H46.75C46.75 30.0629 41.9371 25.25 36 25.25V26.75ZM39.7368 31.7017L39.3612 31.0513L38.0622 31.8013L38.4377 32.4518L39.7368 31.7017ZM33.9381 40.1988L33.5625 39.5483L32.2634 40.2983L32.639 40.9488L33.9381 40.1988ZM36.6113 37.0239C38.3674 37.6699 38.5734 40.071 36.9529 41.0066L37.7029 42.3056C40.4247 40.7341 40.0788 36.7011 37.1291 35.6161L36.6113 37.0239ZM34.2973 29.6944C31.5755 31.2659 31.9214 35.2989 34.8712 36.3839L35.389 34.9761C33.6328 34.3301 33.4268 31.929 35.0473 30.9934L34.2973 29.6944ZM36.75 43V42.049H35.25V43H36.75ZM36.75 42.049V36H35.25V42.049H36.75ZM36.9529 41.0066C36.6383 41.1882 36.2996 41.2831 35.9624 41.3L36.0376 42.7981C36.6068 42.7695 37.1776 42.6089 37.7029 42.3056L36.9529 41.0066ZM35.9624 41.3C35.1595 41.3403 34.366 40.94 33.9381 40.1988L32.639 40.9488C33.3592 42.1962 34.6945 42.8655 36.0376 42.7981L35.9624 41.3ZM34.8711 36.3839L35.7411 36.7039L36.2589 35.2961L35.389 34.9761L34.8711 36.3839ZM35.7411 36.7039L36.6113 37.0239L37.129 35.6161L36.2589 35.2961L35.7411 36.7039ZM36.75 36L36.75 29.951H35.25L35.25 36H36.75ZM36.75 29.951V29H35.25V29.951H36.75ZM39.3612 31.0513C38.6409 29.8037 37.3055 29.1344 35.9624 29.2019L36.0376 30.7C36.8406 30.6597 37.6342 31.06 38.0622 31.8013L39.3612 31.0513ZM35.9624 29.2019C35.3933 29.2305 34.8226 29.3911 34.2973 29.6944L35.0473 30.9934C35.3619 30.8118 35.7005 30.717 36.0376 30.7L35.9624 29.2019Z" fill="#2A76C3"/>
</svg>
