<svg width="72" height="72" viewBox="0 0 72 72" fill="none" xmlns="http://www.w3.org/2000/svg">
<circle cx="36" cy="36" r="36" fill="#589BEB" fill-opacity="0.1"/>
<path fill-rule="evenodd" clip-rule="evenodd" d="M45.94 32.5501L44.89 31.5001C44.3896 30.9941 43.7115 30.7035 43 30.6901H39V30.1101C39 28.5913 37.7688 27.3601 36.25 27.3601H28C27.5858 27.3601 27.25 27.6959 27.25 28.1101C27.25 28.5243 27.5858 28.8601 28 28.8601H36.22C36.9104 28.8601 37.47 29.4198 37.47 30.1101V36.4401C37.47 36.8543 37.8058 37.1901 38.22 37.1901C38.6342 37.1901 38.97 36.8543 38.97 36.4401V32.1901H42.97C43.3014 32.1888 43.6191 32.3224 43.85 32.5601L44.9 33.5601C45.0432 33.7086 45.1464 33.8909 45.2 34.0901H41C40.5858 34.0901 40.25 34.4259 40.25 34.8401C40.25 35.2543 40.5858 35.5901 41 35.5901H45.25V39.8401C45.2636 40.1802 45.138 40.5111 44.902 40.7565C44.6661 41.0018 44.3404 41.1404 44 41.1401H42.89C42.6439 39.9863 41.6247 39.1616 40.445 39.1616C39.2653 39.1616 38.2461 39.9863 38 41.1401H32.66C32.3908 39.9475 31.2927 39.129 30.0729 39.2118C28.8531 39.2945 27.8757 40.2539 27.7701 41.4719C27.6645 42.69 28.4624 43.8032 29.6498 44.0946C30.8371 44.386 32.0597 43.7686 32.53 42.6401H38.14C38.5298 43.5683 39.4383 44.1721 40.445 44.1721C41.4517 44.1721 42.3602 43.5683 42.75 42.6401H44C45.5188 42.6401 46.75 41.4089 46.75 39.8901V34.5001C46.7514 33.768 46.4597 33.0658 45.94 32.5501ZM30.22 42.4801C29.8843 42.4965 29.5726 42.3063 29.4335 42.0003C29.2945 41.6943 29.3562 41.3344 29.5894 41.0923C29.8225 40.8502 30.1798 40.7749 30.4909 40.9023C30.8019 41.0297 31.0037 41.334 31 41.6701C31.0003 42.106 30.6556 42.464 30.22 42.4801ZM39.6815 41.9716C39.8078 42.2792 40.1074 42.4801 40.44 42.4801C40.889 42.4801 41.2545 42.1191 41.26 41.6701C41.2641 41.3376 41.0669 41.0355 40.7608 40.9054C40.4547 40.7754 40.1004 40.843 39.8638 41.0767C39.6272 41.3104 39.5552 41.6639 39.6815 41.9716Z" fill="#2A76C3"/>
<path d="M34.75 33.0001C34.7446 32.5881 34.412 32.2555 34 32.2501H26C25.5858 32.2501 25.25 32.5859 25.25 33.0001C25.25 33.4143 25.5858 33.7501 26 33.7501H34C34.412 33.7447 34.7446 33.4121 34.75 33.0001Z" fill="#2A76C3"/>
<path d="M34 35.2501H29C28.5858 35.2501 28.25 35.5859 28.25 36.0001C28.25 36.4143 28.5858 36.7501 29 36.7501H34C34.4142 36.7501 34.75 36.4143 34.75 36.0001C34.75 35.5859 34.4142 35.2501 34 35.2501Z" fill="#2A76C3"/>
</svg>
