<svg width="20" height="20" viewBox="0 0 20 20" fill="none" xmlns="http://www.w3.org/2000/svg">
<path d="M2.5 11.666V8.33268C2.5 5.19018 2.5 3.61852 3.47667 2.64268C4.4525 1.66602 6.02417 1.66602 9.16667 1.66602H10.8333C13.9758 1.66602 15.5475 1.66602 16.5233 2.64268C17.0683 3.18685 17.3092 3.91602 17.415 4.99935M17.5 8.33268V11.666C17.5 14.8085 17.5 16.3802 16.5233 17.356C15.5475 18.3327 13.9758 18.3327 10.8333 18.3327H9.16667C6.02417 18.3327 4.4525 18.3327 3.47667 17.356C2.93167 16.8118 2.69083 16.0827 2.585 14.9993M6.66667 11.666H10.8333M6.66667 8.33268H7.5M13.3333 8.33268H10" stroke="#2A76C3" stroke-width="1.5" stroke-linecap="round"/>
</svg>
