<svg width="14" height="14" viewBox="0 0 14 14" fill="none" xmlns="http://www.w3.org/2000/svg">
<path d="M9.04903 0.540059C9.25145 0.493536 9.46333 0.511193 9.65526 0.59058C9.84718 0.669966 10.0096 0.807141 10.12 0.983059L11.114 2.57006C11.1942 2.69788 11.3022 2.80591 11.43 2.88606L13.017 3.88006C13.1933 3.99039 13.3308 4.15294 13.4104 4.34508C13.49 4.53722 13.5077 4.74939 13.461 4.95206L13.041 6.77606C13.0072 6.92347 13.0072 7.07665 13.041 7.22406L13.461 9.04906C13.5072 9.25143 13.4893 9.46317 13.4098 9.6549C13.3302 9.84663 13.1929 10.0089 13.017 10.1191L11.43 11.1141C11.3021 11.194 11.194 11.3021 11.114 11.4301L10.12 13.0171C10.0098 13.1932 9.84738 13.3305 9.65544 13.4101C9.46351 13.4897 9.25155 13.5075 9.04903 13.4611L7.22403 13.0411C7.07694 13.0073 6.92412 13.0073 6.77703 13.0411L4.95203 13.4611C4.74951 13.5075 4.53756 13.4897 4.34562 13.4101C4.15369 13.3305 3.9913 13.1932 3.88103 13.0171L2.88703 11.4301C2.80657 11.3021 2.6982 11.1941 2.57003 11.1141L0.984032 10.1201C0.807932 10.0098 0.670553 9.84741 0.590983 9.65547C0.511413 9.46353 0.493605 9.25158 0.540032 9.04906L0.959032 7.22406C0.992913 7.07665 0.992913 6.92347 0.959032 6.77606L0.539032 4.95206C0.492475 4.74929 0.510322 4.53704 0.590087 4.34489C0.669851 4.15274 0.80756 3.99025 0.984032 3.88006L2.57003 2.88606C2.69822 2.80603 2.8066 2.69799 2.88703 2.57006L3.88103 0.983059C3.99138 0.807331 4.15366 0.670282 4.34538 0.590906C4.5371 0.511531 4.74876 0.493761 4.95103 0.540059L6.77703 0.959059C6.92412 0.992787 7.07694 0.992787 7.22403 0.959059L9.04903 0.540059Z" stroke="#1964AF"/>
<path d="M4.51514 7.53565L6.55014 9.48465L9.48514 4.51465" stroke="#1964AF" stroke-linecap="round" stroke-linejoin="round"/>
</svg>
