<svg width="186" height="186" viewBox="0 0 186 186" fill="none" xmlns="http://www.w3.org/2000/svg">
<g filter="url(#filter0_f_563_1952)">
<path fill-rule="evenodd" clip-rule="evenodd" d="M91.4715 8.28653C118.489 11.8307 122.251 49.4416 139.073 70.8777C152.222 87.6316 176.951 97.2058 177.95 118.48C178.964 140.104 161.736 158.705 143.76 170.768C128.624 180.926 109.653 177.819 91.4715 176.514C75.211 175.347 59.5366 173.121 46.1865 163.765C29.4979 152.069 11.7978 138.616 8.66419 118.48C5.18037 96.0922 15.8838 74.6158 29.495 56.5031C45.8416 34.7505 64.4925 4.7474 91.4715 8.28653Z" fill="#E6F2FC" fill-opacity="0.5"/>
</g>
<path fill-rule="evenodd" clip-rule="evenodd" d="M75.1069 96.3869H85.7735C89.1361 96.3274 91.914 98.9979 91.9869 102.36V113.027C91.9723 116.393 89.2467 119.119 85.8802 119.134H75.2135C71.851 119.178 69.0853 116.496 69.0269 113.134V102.467C69.0269 99.109 71.749 96.3869 75.1069 96.3869ZM85.7735 115.134C86.937 115.134 87.8802 114.19 87.8802 113.027V102.36C87.8802 101.804 87.6574 101.271 87.2616 100.88C86.8657 100.489 86.3298 100.273 85.7735 100.28H75.1069C74.5552 100.28 74.0261 100.499 73.6361 100.889C73.246 101.28 73.0269 101.809 73.0269 102.36V113.027C73.0268 114.18 73.9538 115.119 75.1069 115.134H85.7735Z" fill="#2A76C3"/>
<path d="M82.4935 105.747V104.227C82.4935 103.122 81.5981 102.227 80.4935 102.227C79.389 102.227 78.4935 103.122 78.4935 104.227V105.747H77.0002C75.8956 105.747 75.0002 106.642 75.0002 107.747C75.0002 108.851 75.8956 109.747 77.0002 109.747H78.5202V111.294C78.5202 112.398 79.4156 113.294 80.5202 113.294C81.6248 113.294 82.5202 112.398 82.5202 111.294V109.747H84.0669C85.1714 109.747 86.0669 108.851 86.0669 107.747C86.0669 106.642 85.1714 105.747 84.0669 105.747H82.4935Z" fill="#2A76C3"/>
<path fill-rule="evenodd" clip-rule="evenodd" d="M95.8002 67.4802L114.467 86.1469C114.864 86.551 115.076 87.101 115.054 87.6669V106.334C115.054 113.329 109.382 119 102.387 119H94.7335C93.629 119 92.7335 118.105 92.7335 117C92.7335 115.896 93.629 115 94.7335 115H102.387C107.173 115 111.054 111.12 111.054 106.334V89.6669H99.7202C95.6701 89.6669 92.3869 86.3836 92.3869 82.3336V70.9736H86.3869C81.5961 70.9883 77.7202 74.8761 77.7202 79.6669V93.0002C77.7202 94.1048 76.8248 95.0002 75.7202 95.0002C74.6156 95.0002 73.7202 94.1048 73.7202 93.0002V79.6669C73.6917 76.289 75.0137 73.0397 77.3922 70.6412C79.7708 68.2426 83.0089 66.8934 86.3869 66.8936H94.3869C94.9171 66.894 95.4255 67.105 95.8002 67.4802ZM96.3869 73.7202V82.3336C96.4015 84.1641 97.8896 85.6403 99.7202 85.6402H108.307L96.3869 73.7202Z" fill="#2A76C3"/>
<defs>
<filter id="filter0_f_563_1952" x="0.342342" y="0.342342" width="185.308" height="185.315" filterUnits="userSpaceOnUse" color-interpolation-filters="sRGB">
<feFlood flood-opacity="0" result="BackgroundImageFix"/>
<feBlend mode="normal" in="SourceGraphic" in2="BackgroundImageFix" result="shape"/>
<feGaussianBlur stdDeviation="3.82883" result="effect1_foregroundBlur_563_1952"/>
</filter>
</defs>
</svg>
