<svg width="54" height="43" viewBox="0 0 54 43" fill="none" xmlns="http://www.w3.org/2000/svg">
<path d="M4.25 17.7499H9.5V31.7499H6C5.53587 31.7499 5.09075 31.9343 4.76256 32.2624C4.43437 32.5906 4.25 33.0358 4.25 33.4999C4.25 33.964 4.43437 34.4091 4.76256 34.7373C5.09075 35.0655 5.53587 35.2499 6 35.2499H48C48.4641 35.2499 48.9092 35.0655 49.2374 34.7373C49.5656 34.4091 49.75 33.964 49.75 33.4999C49.75 33.0358 49.5656 32.5906 49.2374 32.2624C48.9092 31.9343 48.4641 31.7499 48 31.7499H44.5V17.7499H49.75C50.1308 17.7495 50.501 17.6249 50.8046 17.3951C51.1082 17.1653 51.3285 16.8427 51.4321 16.4763C51.5358 16.1099 51.5171 15.7197 51.379 15.3649C51.2408 15.0101 50.9907 14.71 50.6666 14.5102L27.9166 0.510201C27.6409 0.340709 27.3236 0.250977 27 0.250977C26.6764 0.250977 26.3591 0.340709 26.0834 0.510201L3.33344 14.5102C3.00931 14.71 2.7592 15.0101 2.62103 15.3649C2.48287 15.7197 2.4642 16.1099 2.56786 16.4763C2.67152 16.8427 2.89184 17.1653 3.19541 17.3951C3.49898 17.6249 3.86923 17.7495 4.25 17.7499ZM13 17.7499H20V31.7499H13V17.7499ZM30.5 17.7499V31.7499H23.5V17.7499H30.5ZM41 31.7499H34V17.7499H41V31.7499ZM27 4.05395L43.5681 14.2499H10.4319L27 4.05395ZM53.25 40.4999C53.25 40.964 53.0656 41.4091 52.7374 41.7373C52.4092 42.0655 51.9641 42.2499 51.5 42.2499H2.5C2.03587 42.2499 1.59075 42.0655 1.26256 41.7373C0.934374 41.4091 0.75 40.964 0.75 40.4999C0.75 40.0358 0.934374 39.5906 1.26256 39.2624C1.59075 38.9343 2.03587 38.7499 2.5 38.7499H51.5C51.9641 38.7499 52.4092 38.9343 52.7374 39.2624C53.0656 39.5906 53.25 40.0358 53.25 40.4999Z" fill="#2A76C3"/>
</svg>
