<svg width="32" height="24" viewBox="0 0 32 24" fill="none" xmlns="http://www.w3.org/2000/svg">
<g clip-path="url(#clip0_181_1501)">
<path d="M5.81764 23.8805V22.2921C5.81764 21.683 5.43339 21.286 4.77477 21.286C4.44552 21.286 4.08877 21.3919 3.84177 21.7361C3.64977 21.4448 3.37539 21.286 2.96377 21.286C2.68927 21.286 2.41502 21.3654 2.19539 21.6566V21.339H1.61914V23.8805H2.19539V22.4773C2.19539 22.0274 2.44239 21.8155 2.82664 21.8155C3.21064 21.8155 3.40289 22.0538 3.40289 22.4773V23.8805H3.97914V22.4773C3.97914 22.0274 4.25339 21.8155 4.61014 21.8155C4.99439 21.8155 5.18639 22.0538 5.18639 22.4773V23.8805H5.81764ZM14.3515 21.339H13.4186V20.5712H12.8424V21.339H12.321V21.8419H12.8423V23.0069C12.8423 23.5894 13.0893 23.9335 13.7479 23.9335C13.9949 23.9335 14.2691 23.8541 14.4614 23.7482L14.2966 23.2716C14.132 23.3775 13.94 23.404 13.8028 23.404C13.5284 23.404 13.4186 23.2452 13.4186 22.9804V21.8419H14.3515V21.339ZM19.236 21.2859C18.9068 21.2859 18.6873 21.4448 18.55 21.6566V21.339H17.9738V23.8805H18.55V22.4509C18.55 22.0274 18.742 21.789 19.0988 21.789C19.2085 21.789 19.3458 21.8156 19.4555 21.842L19.6201 21.3125C19.5104 21.286 19.3458 21.286 19.236 21.286M11.8545 21.5509C11.58 21.3655 11.1959 21.2861 10.7843 21.2861C10.1258 21.2861 9.68677 21.6038 9.68677 22.1068C9.68677 22.5305 10.016 22.7687 10.5923 22.8482L10.8666 22.8747C11.1685 22.9275 11.3331 23.007 11.3331 23.1394C11.3331 23.3247 11.1136 23.4571 10.7294 23.4571C10.3453 23.4571 10.0434 23.3247 9.85126 23.1924L9.57689 23.6159C9.87877 23.8277 10.2904 23.9336 10.7019 23.9336C11.4703 23.9336 11.9094 23.5895 11.9094 23.1129C11.9094 22.6628 11.5526 22.4245 11.0038 22.3451L10.7294 22.3186C10.4824 22.2921 10.2904 22.2393 10.2904 22.0804C10.2904 21.8951 10.4824 21.7892 10.7843 21.7892C11.1136 21.7892 11.4429 21.9215 11.6075 22.0009L11.8545 21.5509ZM27.1664 21.2861C26.837 21.2861 26.6175 21.445 26.4803 21.6567V21.3391H25.904V23.8807H26.4803V22.451C26.4803 22.0275 26.6724 21.7892 27.029 21.7892C27.1389 21.7892 27.2761 21.8157 27.3859 21.8421L27.5505 21.3127C27.4408 21.2861 27.2761 21.2861 27.1664 21.2861ZM19.8123 22.6099C19.8123 23.3776 20.361 23.9336 21.2118 23.9336C21.5959 23.9336 21.8703 23.8543 22.1446 23.6425L21.8703 23.1924C21.6508 23.3512 21.4313 23.4306 21.1843 23.4306C20.7178 23.4306 20.3885 23.1129 20.3885 22.6099C20.3885 22.1334 20.7178 21.8156 21.1843 21.7892C21.4313 21.7892 21.6508 21.8685 21.8703 22.0275L22.1446 21.5774C21.8703 21.3655 21.5959 21.2861 21.2118 21.2861C20.361 21.2861 19.8123 21.8421 19.8123 22.6099ZM25.1358 22.6099V21.3391H24.5595V21.6567C24.3674 21.4186 24.093 21.2861 23.7363 21.2861C22.9954 21.2861 22.4191 21.8421 22.4191 22.6099C22.4191 23.3776 22.9954 23.9336 23.7363 23.9336C24.1204 23.9336 24.3949 23.8013 24.5595 23.563V23.8807H25.1358V22.6099ZM23.0228 22.6099C23.0228 22.1598 23.3246 21.7892 23.8185 21.7892C24.285 21.7892 24.6144 22.1334 24.6144 22.6099C24.6144 23.06 24.285 23.4306 23.8185 23.4306C23.3246 23.404 23.0228 23.06 23.0228 22.6099ZM16.1353 21.2861C15.3669 21.2861 14.818 21.8156 14.818 22.6099C14.818 23.4042 15.3668 23.9336 16.1626 23.9336C16.5468 23.9336 16.931 23.8277 17.2329 23.5895L16.9584 23.1924C16.7389 23.3512 16.4645 23.4571 16.1901 23.4571C15.8334 23.4571 15.4766 23.2983 15.3943 22.8481H17.3426V22.6364C17.3701 21.8156 16.8763 21.2861 16.1353 21.2861ZM16.1351 21.7626C16.4918 21.7626 16.7389 21.9745 16.7936 22.3717H15.4216C15.4765 22.0275 15.7235 21.7626 16.1351 21.7626ZM30.4316 22.6099V20.333H29.8554V21.6567C29.6633 21.4186 29.3889 21.2861 29.0321 21.2861C28.2913 21.2861 27.715 21.8421 27.715 22.6099C27.715 23.3776 28.2913 23.9336 29.0321 23.9336C29.4164 23.9336 29.6908 23.8013 29.8554 23.563V23.8807H30.4316V22.6099ZM28.3188 22.6099C28.3188 22.1598 28.6205 21.7892 29.1145 21.7892C29.581 21.7892 29.9103 22.1334 29.9103 22.6099C29.9103 23.06 29.581 23.4306 29.1145 23.4306C28.6205 23.404 28.3188 23.06 28.3188 22.6099ZM9.05539 22.6099V21.3391H8.47914V21.6567C8.28702 21.4186 8.01264 21.2861 7.65589 21.2861C6.91502 21.2861 6.33877 21.8421 6.33877 22.6099C6.33877 23.3776 6.91502 23.9336 7.65589 23.9336C8.04014 23.9336 8.31452 23.8013 8.47914 23.563V23.8807H9.05539V22.6099ZM6.91502 22.6099C6.91502 22.1598 7.21689 21.7892 7.71077 21.7892C8.17727 21.7892 8.50664 22.1334 8.50664 22.6099C8.50664 23.06 8.17727 23.4306 7.71077 23.4306C7.21689 23.404 6.91502 23.06 6.91502 22.6099Z" fill="black"/>
<path d="M11.6621 2.03809H20.3059V17.0231H11.6621V2.03809Z" fill="#FF5F00"/>
<path d="M12.2111 9.53114C12.2111 6.48651 13.6929 3.78597 15.9704 2.03855C14.2966 0.767759 12.1838 0 9.87875 0C4.41787 0 0 4.26247 0 9.53114C0 14.7997 4.41787 19.0623 9.87862 19.0623C12.1836 19.0623 14.2965 18.2945 15.9704 17.0236C13.6929 15.3027 12.2111 12.5758 12.2111 9.53114Z" fill="#EB001B"/>
<path d="M31.9684 9.53114C31.9684 14.7997 27.5505 19.0623 22.0898 19.0623C19.7848 19.0623 17.6719 18.2945 15.998 17.0236C18.303 15.2763 19.7574 12.5758 19.7574 9.53114C19.7574 6.48651 18.2755 3.78597 15.998 2.03855C17.6718 0.767759 19.7848 0 22.0898 0C27.5505 0 31.9684 4.28901 31.9684 9.53114Z" fill="#F79E1B"/>
</g>
<defs>
<clipPath id="clip0_181_1501">
<rect width="32" height="24" fill="white"/>
</clipPath>
</defs>
</svg>
